<mxfile host="Electron" modified="2023-06-27T10:01:16.447Z" agent="Mozilla/5.0 (Windows NT 10.0; Win64; x64) AppleWebKit/537.36 (KHTML, like Gecko) draw.io/21.5.0 Chrome/112.0.5615.204 Electron/24.5.1 Safari/537.36" etag="UT5JFhRpiJUKJ47r9U5f" version="21.5.0" type="device">
  <diagram name="Page-1" id="v_aJZRMUEt9GA8tY_2jx">
    <mxGraphModel dx="1098" dy="828" grid="1" gridSize="10" guides="1" tooltips="1" connect="1" arrows="1" fold="1" page="1" pageScale="1" pageWidth="827" pageHeight="1169" math="0" shadow="0">
      <root>
        <mxCell id="0" />
        <mxCell id="1" parent="0" />
        <mxCell id="Y-lHF1l6T96z4BVPMQay-1" value="" style="edgeStyle=orthogonalEdgeStyle;rounded=0;orthogonalLoop=1;jettySize=auto;html=1;" edge="1" parent="1" source="Y-lHF1l6T96z4BVPMQay-2" target="Y-lHF1l6T96z4BVPMQay-4">
          <mxGeometry relative="1" as="geometry" />
        </mxCell>
        <mxCell id="Y-lHF1l6T96z4BVPMQay-2" value="Saisir le Rayon" style="rounded=0;whiteSpace=wrap;html=1;" vertex="1" parent="1">
          <mxGeometry x="80" y="80" width="120" height="60" as="geometry" />
        </mxCell>
        <mxCell id="Y-lHF1l6T96z4BVPMQay-3" value="" style="edgeStyle=orthogonalEdgeStyle;rounded=0;orthogonalLoop=1;jettySize=auto;html=1;" edge="1" parent="1" source="Y-lHF1l6T96z4BVPMQay-4" target="Y-lHF1l6T96z4BVPMQay-6">
          <mxGeometry relative="1" as="geometry" />
        </mxCell>
        <mxCell id="Y-lHF1l6T96z4BVPMQay-4" value="Calcul de l&#39;Aire 4*pi*Rayon^2" style="rounded=0;whiteSpace=wrap;html=1;" vertex="1" parent="1">
          <mxGeometry x="80" y="160" width="120" height="60" as="geometry" />
        </mxCell>
        <mxCell id="Y-lHF1l6T96z4BVPMQay-5" value="" style="edgeStyle=orthogonalEdgeStyle;rounded=0;orthogonalLoop=1;jettySize=auto;html=1;" edge="1" parent="1" source="Y-lHF1l6T96z4BVPMQay-6" target="Y-lHF1l6T96z4BVPMQay-9">
          <mxGeometry relative="1" as="geometry" />
        </mxCell>
        <mxCell id="Y-lHF1l6T96z4BVPMQay-6" value="Calcul du Volume&lt;br&gt;4/3*Pi*Rayon^3" style="rounded=0;whiteSpace=wrap;html=1;" vertex="1" parent="1">
          <mxGeometry x="80" y="250" width="120" height="60" as="geometry" />
        </mxCell>
        <mxCell id="Y-lHF1l6T96z4BVPMQay-7" value="" style="edgeStyle=orthogonalEdgeStyle;html=1;verticalAlign=bottom;endArrow=open;endSize=8;strokeColor=#ff0000;rounded=0;entryX=0.5;entryY=0;entryDx=0;entryDy=0;" edge="1" parent="1" target="Y-lHF1l6T96z4BVPMQay-2">
          <mxGeometry relative="1" as="geometry">
            <mxPoint x="150" y="80" as="targetPoint" />
            <mxPoint x="140" y="50" as="sourcePoint" />
          </mxGeometry>
        </mxCell>
        <mxCell id="Y-lHF1l6T96z4BVPMQay-8" value="" style="edgeStyle=orthogonalEdgeStyle;rounded=0;orthogonalLoop=1;jettySize=auto;html=1;" edge="1" parent="1" source="Y-lHF1l6T96z4BVPMQay-9" target="Y-lHF1l6T96z4BVPMQay-11">
          <mxGeometry relative="1" as="geometry" />
        </mxCell>
        <mxCell id="Y-lHF1l6T96z4BVPMQay-9" value="Afficher Aire" style="rounded=0;whiteSpace=wrap;html=1;" vertex="1" parent="1">
          <mxGeometry x="80" y="380" width="120" height="60" as="geometry" />
        </mxCell>
        <mxCell id="Y-lHF1l6T96z4BVPMQay-10" value="" style="edgeStyle=orthogonalEdgeStyle;rounded=0;orthogonalLoop=1;jettySize=auto;html=1;" edge="1" parent="1" source="Y-lHF1l6T96z4BVPMQay-11">
          <mxGeometry relative="1" as="geometry">
            <mxPoint x="140" y="565" as="targetPoint" />
          </mxGeometry>
        </mxCell>
        <mxCell id="Y-lHF1l6T96z4BVPMQay-11" value="Afficher Volume" style="rounded=0;whiteSpace=wrap;html=1;" vertex="1" parent="1">
          <mxGeometry x="80" y="470" width="120" height="60" as="geometry" />
        </mxCell>
        <mxCell id="Y-lHF1l6T96z4BVPMQay-12" value="" style="ellipse;html=1;shape=endState;fillColor=#000000;strokeColor=#ff0000;" vertex="1" parent="1">
          <mxGeometry x="125" y="560" width="30" height="30" as="geometry" />
        </mxCell>
        <mxCell id="Y-lHF1l6T96z4BVPMQay-13" value="" style="ellipse;html=1;shape=startState;fillColor=#000000;strokeColor=#ff0000;" vertex="1" parent="1">
          <mxGeometry x="125" y="10" width="30" height="30" as="geometry" />
        </mxCell>
        <mxCell id="Y-lHF1l6T96z4BVPMQay-14" value="" style="edgeStyle=orthogonalEdgeStyle;html=1;verticalAlign=bottom;endArrow=open;endSize=8;strokeColor=#ff0000;rounded=0;entryX=0.5;entryY=0;entryDx=0;entryDy=0;" edge="1" source="Y-lHF1l6T96z4BVPMQay-13" parent="1" target="Y-lHF1l6T96z4BVPMQay-2">
          <mxGeometry relative="1" as="geometry">
            <mxPoint x="140" y="100" as="targetPoint" />
          </mxGeometry>
        </mxCell>
      </root>
    </mxGraphModel>
  </diagram>
</mxfile>
